<?xml version="1.0" encoding="utf-8"?>
<svg version="1.1" xmlns="http://www.w3.org/2000/svg" xmlns:xlink="http://www.w3.org/1999/xlink" x="0px" y="0px"
	 viewBox="0 0 1080 362.22" style="enable-background:new 0 0 1080 362.22;" xml:space="preserve">
<style type="text/css">
	.st0{fill:#FFFFFF;}
</style>
<g id="Logos">
	<rect width="1080" height="362.22"/>
	<g>
		<g>
			<path class="st0" d="M183.22,271.21c-3.1,1.2-6.25,1.8-9.46,1.8c-3.62,0-6.92-0.63-9.9-1.9c-2.98-1.27-5.56-3.02-7.73-5.26
				c-2.17-2.24-3.86-4.92-5.05-8.04c-1.2-3.12-1.8-6.51-1.8-10.17c0-3.66,0.6-7.05,1.8-10.17c1.2-3.12,2.88-5.8,5.05-8.04
				c2.17-2.24,4.76-3.99,7.77-5.26c3.01-1.27,6.3-1.9,9.87-1.9c2.98,0,5.89,0.51,8.72,1.53s5.23,2.57,7.22,4.65l-0.95,1.08
				c-0.95-0.99-2.02-1.86-3.22-2.61c-1.2-0.75-2.47-1.37-3.8-1.87c-1.33-0.5-2.68-0.86-4.04-1.08c-1.36-0.23-2.67-0.34-3.93-0.34
				c-3.44,0-6.57,0.62-9.39,1.87c-2.83,1.24-5.25,2.95-7.26,5.12c-2.01,2.17-3.57,4.71-4.68,7.63c-1.11,2.92-1.66,6.05-1.66,9.39
				c0,3.35,0.54,6.48,1.63,9.39c1.09,2.92,2.63,5.46,4.65,7.63c2.01,2.17,4.43,3.88,7.26,5.12c2.83,1.24,5.98,1.87,9.46,1.87
				c2.98,0,5.93-0.58,8.85-1.73c2.92-1.15,5.32-2.88,7.22-5.19l1.08,1.02C188.88,268.2,186.31,270.02,183.22,271.21z"/>
			<path class="st0" d="M203.53,271.65v-48.02h1.49v46.66h23.87v1.36H203.53z"/>
			<path class="st0" d="M240.15,271.65v-48.02h28.01v1.36h-26.52v21.09h24.96v1.36h-24.96v22.86h27.6v1.36H240.15z"/>
			<path class="st0" d="M318.15,271.65l-5.7-13.77h-27.88l-5.9,13.77h-1.63l20.82-48.02h1.9l20.01,48.02H318.15z M298.75,224.58
				l-13.63,32.01h26.86L298.75,224.58z"/>
			<path class="st0" d="M367.19,271.65l-34.45-46.12h-0.2v46.12h-1.49v-48.02h2.1l34.52,46.05h0.2v-46.05h1.49v48.02H367.19z"/>
			<path class="st0" d="M386.58,271.65v-48.02h1.49v48.02H386.58z"/>
			<path class="st0" d="M441.45,271.65L407,225.53h-0.2v46.12h-1.49v-48.02h2.1l34.52,46.05h0.2v-46.05h1.49v48.02H441.45z"/>
			<path class="st0" d="M493.94,271.72c-2.9,0.86-6.25,1.29-10.05,1.29c-3.8,0-7.27-0.65-10.39-1.97c-3.12-1.31-5.8-3.11-8.02-5.39
				c-2.22-2.28-3.93-4.97-5.13-8.07c-1.2-3.1-1.8-6.45-1.8-10.07c0-3.62,0.61-6.97,1.83-10.07c1.22-3.1,2.93-5.76,5.12-8
				c2.19-2.24,4.83-3.99,7.9-5.26c3.07-1.27,6.47-1.9,10.17-1.9c3.26,0,6.24,0.5,8.95,1.49c2.71,1,5.11,2.35,7.19,4.07l-1.08,1.09
				c-0.91-0.86-1.96-1.62-3.15-2.27c-1.2-0.65-2.46-1.21-3.8-1.66c-1.33-0.45-2.7-0.79-4.1-1.02c-1.4-0.23-2.76-0.34-4.07-0.34
				c-3.53,0-6.74,0.62-9.63,1.87c-2.89,1.24-5.37,2.95-7.43,5.12c-2.06,2.17-3.64,4.7-4.75,7.6c-1.11,2.89-1.66,5.99-1.66,9.29
				c0,3.3,0.54,6.42,1.63,9.36c1.09,2.94,2.66,5.5,4.71,7.7c2.06,2.19,4.57,3.92,7.53,5.19c2.96,1.27,6.32,1.9,10.07,1.9
				c3.26,0,6.15-0.34,8.68-1.02c2.53-0.68,4.86-1.54,6.99-2.58V249.2h-12.48v-1.29h13.97v20.96
				C499.23,269.91,496.83,270.86,493.94,271.72z"/>
			<path class="st0" d="M564.01,260.12c0,2.03-0.4,3.86-1.19,5.46c-0.79,1.6-1.84,2.96-3.15,4.07c-1.31,1.11-2.86,1.94-4.65,2.51
				c-1.79,0.56-3.65,0.85-5.6,0.85c-2.98,0-5.71-0.53-8.17-1.59c-2.47-1.06-4.51-2.5-6.14-4.31l1.15-1.02
				c1.72,1.85,3.72,3.25,6,4.17c2.28,0.93,4.65,1.39,7.09,1.39c1.76,0,3.44-0.26,5.02-0.78c1.58-0.52,2.98-1.27,4.2-2.24
				c1.22-0.97,2.18-2.17,2.88-3.6c0.7-1.42,1.05-3.06,1.05-4.92c0-1.85-0.39-3.41-1.15-4.68c-0.77-1.27-1.76-2.35-2.98-3.26
				c-1.22-0.9-2.61-1.66-4.17-2.27c-1.56-0.61-3.13-1.16-4.71-1.66c-1.99-0.63-3.81-1.3-5.46-2c-1.65-0.7-3.08-1.56-4.27-2.58
				c-1.2-1.02-2.13-2.24-2.78-3.66c-0.66-1.42-0.98-3.15-0.98-5.19c0-1.99,0.4-3.76,1.19-5.32s1.87-2.87,3.22-3.93
				c1.36-1.06,2.93-1.88,4.71-2.44c1.79-0.56,3.67-0.85,5.66-0.85c2.44,0,4.76,0.46,6.95,1.39c2.19,0.93,3.99,2.25,5.39,3.97
				l-1.15,1.02c-1.27-1.58-2.88-2.81-4.85-3.7s-4.1-1.32-6.41-1.32c-1.63,0-3.22,0.23-4.78,0.68c-1.56,0.45-2.97,1.14-4.24,2.07
				c-1.27,0.93-2.28,2.09-3.05,3.49c-0.77,1.4-1.15,3.05-1.15,4.95c0,1.85,0.34,3.42,1.02,4.71c0.68,1.29,1.58,2.38,2.71,3.29
				c1.13,0.91,2.41,1.65,3.83,2.24c1.42,0.59,2.88,1.13,4.37,1.63c2.03,0.68,3.93,1.37,5.7,2.07c1.76,0.7,3.31,1.55,4.65,2.54
				c1.33,1,2.37,2.2,3.12,3.63C563.64,256.36,564.01,258.09,564.01,260.12z"/>
			<path class="st0" d="M626,247.64c0,3.71-0.62,7.11-1.86,10.21c-1.24,3.1-2.96,5.77-5.15,8c-2.19,2.24-4.81,3.99-7.83,5.26
				c-3.03,1.27-6.31,1.9-9.83,1.9c-3.53,0-6.81-0.63-9.83-1.9c-3.03-1.27-5.64-3.02-7.83-5.26c-2.19-2.24-3.91-4.91-5.15-8
				c-1.24-3.1-1.87-6.5-1.87-10.21c0-3.71,0.62-7.11,1.87-10.21c1.24-3.1,2.96-5.76,5.15-8c2.19-2.24,4.79-3.99,7.8-5.26
				c3.01-1.27,6.3-1.9,9.87-1.9s6.86,0.63,9.87,1.9c3.01,1.27,5.61,3.02,7.8,5.26c2.19,2.24,3.91,4.91,5.15,8
				C625.38,240.54,626,243.94,626,247.64z M624.51,247.64c0-3.34-0.57-6.48-1.7-9.39c-1.13-2.92-2.72-5.46-4.78-7.63
				c-2.06-2.17-4.51-3.88-7.36-5.12c-2.85-1.24-5.97-1.87-9.36-1.87c-3.39,0-6.51,0.62-9.36,1.87c-2.85,1.24-5.3,2.95-7.36,5.12
				c-2.06,2.17-3.65,4.71-4.78,7.63c-1.13,2.92-1.7,6.05-1.7,9.39c0,3.35,0.55,6.48,1.66,9.39c1.11,2.92,2.68,5.46,4.71,7.63
				s4.48,3.88,7.32,5.12c2.85,1.24,6.01,1.87,9.5,1.87c3.48,0,6.65-0.62,9.5-1.87c2.85-1.24,5.29-2.95,7.33-5.12
				c2.03-2.17,3.61-4.71,4.71-7.63C623.95,254.12,624.51,250.99,624.51,247.64z"/>
			<path class="st0" d="M640.92,271.65v-48.02h1.49v46.66h23.87v1.36H640.92z"/>
			<path class="st0" d="M710.92,261.11c-0.63,2.37-1.67,4.44-3.12,6.21c-1.45,1.76-3.33,3.15-5.66,4.17
				c-2.33,1.02-5.19,1.53-8.58,1.53c-3.39,0-6.25-0.51-8.58-1.53c-2.33-1.02-4.22-2.41-5.66-4.17c-1.45-1.76-2.49-3.83-3.12-6.21
				c-0.63-2.38-0.95-4.92-0.95-7.63v-29.84h1.49v29.57c0,1.9,0.19,3.92,0.58,6.07c0.38,2.15,1.17,4.14,2.37,5.97
				c1.2,1.83,2.89,3.36,5.09,4.58c2.19,1.22,5.12,1.83,8.78,1.83c3.57,0,6.45-0.59,8.65-1.76c2.19-1.18,3.9-2.68,5.12-4.51
				c1.22-1.83,2.03-3.82,2.44-5.97c0.41-2.15,0.61-4.22,0.61-6.21v-29.57h1.49v29.84C711.87,256.19,711.55,258.73,710.92,261.11z"/>
			<path class="st0" d="M740.28,224.99v46.66h-1.49v-46.66h-16.35v-1.36h34.18v1.36H740.28z"/>
			<path class="st0" d="M767.89,271.65v-48.02h1.49v48.02H767.89z"/>
			<path class="st0" d="M833.68,247.64c0,3.71-0.62,7.11-1.86,10.21c-1.24,3.1-2.96,5.77-5.15,8c-2.19,2.24-4.81,3.99-7.83,5.26
				c-3.03,1.27-6.31,1.9-9.83,1.9c-3.53,0-6.81-0.63-9.83-1.9c-3.03-1.27-5.64-3.02-7.83-5.26c-2.19-2.24-3.91-4.91-5.15-8
				c-1.24-3.1-1.87-6.5-1.87-10.21c0-3.71,0.62-7.11,1.87-10.21c1.24-3.1,2.96-5.76,5.15-8c2.19-2.24,4.79-3.99,7.8-5.26
				c3.01-1.27,6.3-1.9,9.87-1.9c3.57,0,6.86,0.63,9.87,1.9c3.01,1.27,5.61,3.02,7.8,5.26c2.19,2.24,3.91,4.91,5.15,8
				C833.05,240.54,833.68,243.94,833.68,247.64z M832.18,247.64c0-3.34-0.57-6.48-1.7-9.39c-1.13-2.92-2.72-5.46-4.78-7.63
				c-2.06-2.17-4.51-3.88-7.36-5.12c-2.85-1.24-5.97-1.87-9.36-1.87c-3.39,0-6.51,0.62-9.36,1.87c-2.85,1.24-5.3,2.95-7.36,5.12
				c-2.06,2.17-3.65,4.71-4.78,7.63c-1.13,2.92-1.7,6.05-1.7,9.39c0,3.35,0.55,6.48,1.66,9.39c1.11,2.92,2.68,5.46,4.71,7.63
				s4.48,3.88,7.32,5.12c2.85,1.24,6.01,1.87,9.5,1.87c3.48,0,6.65-0.62,9.5-1.87c2.85-1.24,5.29-2.95,7.33-5.12
				c2.03-2.17,3.61-4.71,4.71-7.63C831.63,254.12,832.18,250.99,832.18,247.64z"/>
			<path class="st0" d="M884.75,271.65l-34.45-46.12h-0.2v46.12h-1.49v-48.02h2.1l34.52,46.05h0.2v-46.05h1.49v48.02H884.75z"/>
			<path class="st0" d="M930.73,260.12c0,2.03-0.4,3.86-1.19,5.46c-0.79,1.6-1.84,2.96-3.15,4.07c-1.31,1.11-2.86,1.94-4.65,2.51
				c-1.79,0.56-3.65,0.85-5.6,0.85c-2.98,0-5.71-0.53-8.17-1.59c-2.47-1.06-4.51-2.5-6.14-4.31l1.15-1.02
				c1.72,1.85,3.72,3.25,6,4.17c2.28,0.93,4.65,1.39,7.09,1.39c1.76,0,3.44-0.26,5.02-0.78c1.58-0.52,2.98-1.27,4.21-2.24
				c1.22-0.97,2.18-2.17,2.88-3.6c0.7-1.42,1.05-3.06,1.05-4.92c0-1.85-0.39-3.41-1.15-4.68c-0.77-1.27-1.76-2.35-2.98-3.26
				c-1.22-0.9-2.61-1.66-4.17-2.27s-3.13-1.16-4.71-1.66c-1.99-0.63-3.81-1.3-5.46-2c-1.65-0.7-3.08-1.56-4.27-2.58
				c-1.2-1.02-2.13-2.24-2.78-3.66c-0.66-1.42-0.98-3.15-0.98-5.19c0-1.99,0.4-3.76,1.19-5.32s1.87-2.87,3.22-3.93
				c1.36-1.06,2.93-1.88,4.71-2.44c1.79-0.56,3.67-0.85,5.66-0.85c2.44,0,4.76,0.46,6.95,1.39c2.19,0.93,3.99,2.25,5.39,3.97
				l-1.15,1.02c-1.27-1.58-2.88-2.81-4.85-3.7s-4.1-1.32-6.41-1.32c-1.63,0-3.22,0.23-4.78,0.68c-1.56,0.45-2.97,1.14-4.24,2.07
				c-1.27,0.93-2.28,2.09-3.05,3.49c-0.77,1.4-1.15,3.05-1.15,4.95c0,1.85,0.34,3.42,1.02,4.71c0.68,1.29,1.58,2.38,2.71,3.29
				c1.13,0.91,2.41,1.65,3.83,2.24c1.42,0.59,2.88,1.13,4.37,1.63c2.03,0.68,3.93,1.37,5.7,2.07c1.76,0.7,3.31,1.55,4.65,2.54
				c1.33,1,2.37,2.2,3.12,3.63C930.36,256.36,930.73,258.09,930.73,260.12z"/>
		</g>
		<g>
			<g>
				<path class="st0" d="M780.52,144.67h-46.53v24.63h35.81c9.51,0,17.22,7.71,17.22,17.22v0h-72.59v-95.8h70.26v0
					c0,9.37-7.59,16.96-16.96,16.96h-33.73v20.34h46.53V144.67z"/>
			</g>
			<path class="st0" d="M216.94,97.43c7.06,4.52,11.11,12.3,12.16,23.33h-23.58c-0.33-3.03-1.19-5.43-2.56-7.2
				c-2.59-3.2-7-4.8-13.24-4.8c-5.13,0-8.78,0.8-10.96,2.4c-2.18,1.6-3.27,3.47-3.27,5.63c0,2.7,1.16,4.66,3.47,5.87
				c2.32,1.27,10.51,3.45,24.57,6.54c9.38,2.21,16.41,5.54,21.1,10.01c4.63,4.52,6.95,10.18,6.95,16.96
				c0,8.93-3.32,16.23-9.97,21.88c-6.65,5.65-16.92,8.48-30.82,8.48c-14.17,0-24.64-2.99-31.39-8.98
				c-6.76-5.98-10.13-13.61-10.13-22.87h23.91c0.5,4.19,1.57,7.17,3.23,8.93c2.92,3.14,8.33,4.72,16.21,4.72
				c4.63,0,8.31-0.69,11.04-2.07c2.73-1.38,4.09-3.45,4.09-6.2c0-2.65-1.1-4.66-3.31-6.04c-2.21-1.38-10.4-3.75-24.57-7.11
				c-10.2-2.54-17.4-5.71-21.59-9.51c-4.19-3.75-6.29-9.15-6.29-16.21c0-8.33,3.27-15.48,9.8-21.47c6.54-5.98,15.73-8.98,27.59-8.98
				C200.64,90.73,209.82,92.96,216.94,97.43z"/>
			<path class="st0" d="M332.07,125.34h-24.24c-0.44-3.38-1.58-6.42-3.4-9.13c-2.66-3.65-6.78-5.48-12.37-5.48
				c-7.97,0-13.42,3.96-16.35,11.87c-1.55,4.21-2.32,9.8-2.32,16.77c0,6.64,0.77,11.98,2.32,16.02c2.82,7.53,8.14,11.29,15.94,11.29
				c5.53,0,9.46-1.49,11.79-4.48c2.32-2.99,3.74-6.86,4.23-11.62h24.16c-0.55,7.19-3.15,14-7.8,20.42
				c-7.42,10.35-18.4,15.52-32.96,15.52c-14.56,0-25.26-4.32-32.13-12.95c-6.86-8.63-10.29-19.84-10.29-33.62
				c0-15.55,3.79-27.64,11.37-36.28c7.58-8.63,18.04-12.95,31.38-12.95c11.34,0,20.63,2.55,27.85,7.64
				C326.47,103.46,330.74,112.45,332.07,125.34z"/>
			<path class="st0" d="M396.61,115.45c-9.88,0-16.51,3.22-19.9,9.65c-1.89,3.62-2.84,9.19-2.84,16.71v44.88h-24.72v-70.46
				c0-12.94,10.49-23.43,23.43-23.43l0,0v16.37c3.79-6.26,7.09-10.54,9.91-12.83c4.59-3.85,10.57-5.77,17.92-5.77
				c0.46,0,0.85,0.01,1.16,0.04c0.32,0.03,1.02,0.07,2.11,0.13v25.15c-1.55-0.17-2.93-0.29-4.13-0.34
				C398.33,115.48,397.36,115.45,396.61,115.45z"/>
			<path class="st0" d="M565.95,186.52h-43.41v-95.8h46.53c11.74,0.17,20.06,3.57,24.96,10.2c2.95,4.07,4.42,8.95,4.42,14.62
				c0,5.85-1.47,10.55-4.42,14.1c-1.65,1.99-4.07,3.81-7.28,5.46c4.9,1.78,8.59,4.59,11.08,8.45c2.49,3.86,3.74,8.54,3.74,14.04
				c0,5.68-1.43,10.77-4.29,15.27c-1.82,2.99-4.09,5.5-6.82,7.54c-3.08,2.34-6.71,3.94-10.89,4.81
				C575.38,186.09,570.84,186.52,565.95,186.52z M575.43,126.08c2.6-1.56,3.9-4.35,3.9-8.38c0-4.46-1.73-7.41-5.2-8.84
				c-2.99-1-6.8-1.49-11.44-1.49h-21.06v21.12h23.53C569.37,128.49,572.79,127.68,575.43,126.08z M565.49,144.34h-23.85v25.54h23.53
				c4.2,0,7.47-0.56,9.81-1.69c4.25-2.08,6.37-6.07,6.37-11.96c0-4.98-2.06-8.41-6.17-10.27
				C572.88,144.93,569.65,144.39,565.49,144.34z"/>
			<path class="st0" d="M845.21,186.52h-41.27v-95.8h41.27c5.93,0.09,10.87,0.78,14.82,2.08c6.71,2.21,12.15,6.26,16.31,12.15
				c3.34,4.77,5.61,9.92,6.82,15.47c1.21,5.55,1.82,10.83,1.82,15.86c0,12.74-2.56,23.53-7.67,32.37
				C870.38,180.57,859.68,186.52,845.21,186.52z M860.09,115.16c-3.08-5.2-9.16-7.8-18.26-7.8h-18.46v62.52h18.46
				c9.44,0,16.03-4.66,19.76-13.97c2.04-5.11,3.05-11.2,3.05-18.26C864.64,127.9,863.12,120.41,860.09,115.16z"/>
			<rect x="901.39" y="157.69" class="st0" width="28.83" height="28.83"/>
			<path class="st0" d="M481.68,171.6c-0.23,0.29-0.81,1.15-1.73,2.59c-0.92,1.44-2.02,2.71-3.28,3.8
				c-3.86,3.46-7.59,5.82-11.19,7.09c-3.6,1.27-7.82,1.9-12.66,1.9c-13.94,0-23.33-5.01-28.17-15.03
				c-2.71-5.53-4.06-13.68-4.06-24.45V90.73h0c13.93,0,25.23,11.3,25.23,25.23v31.54c0,5.36,0.63,9.39,1.9,12.1
				c2.25,4.78,6.65,7.17,13.22,7.17c8.41,0,14.17-3.4,17.28-10.2c1.61-3.69,2.42-8.55,2.42-14.6V90.73h24.97v95.8h-23.93V171.6z"/>
			<path class="st0" d="M661.89,186.52h-43.41v-95.8h46.53c11.74,0.17,20.06,3.57,24.96,10.2c2.95,4.07,4.42,8.95,4.42,14.62
				c0,5.85-1.47,10.55-4.42,14.1c-1.65,1.99-4.07,3.81-7.28,5.46c4.9,1.78,8.59,4.59,11.08,8.45c2.49,3.86,3.74,8.54,3.74,14.04
				c0,5.68-1.43,10.77-4.29,15.27c-1.82,2.99-4.09,5.5-6.82,7.54c-3.08,2.34-6.71,3.94-10.89,4.81
				C671.33,186.09,666.79,186.52,661.89,186.52z M671.38,126.08c2.6-1.56,3.9-4.35,3.9-8.38c0-4.46-1.73-7.41-5.2-8.84
				c-2.99-1-6.8-1.49-11.44-1.49h-21.06v21.12h23.53C665.32,128.49,668.74,127.68,671.38,126.08z M661.44,144.34h-23.85v25.54h23.53
				c4.2,0,7.47-0.56,9.81-1.69c4.25-2.08,6.37-6.07,6.37-11.96c0-4.98-2.06-8.41-6.17-10.27
				C668.82,144.93,665.6,144.39,661.44,144.34z"/>
		</g>
	</g>
</g>
<g id="Guide">
</g>
</svg>
